<svg height="806" width="1380" xmlns="http://www.w3.org/2000/svg">
 <!-- Created with Image Occlusion Enhanced -->
 <g>
  <title>Labels</title>
 </g>
 <g>
  <title>Masks</title>
  <rect fill="#FFEBA2" height="48.52941" id="dc1e7cf850ec43d590984f3648af8d4f-ao-1" stroke="#2D2D2D" width="147.05882" x="111.17643" y="45.47056"/>
  <rect fill="#FFEBA2" height="23.52941" id="dc1e7cf850ec43d590984f3648af8d4f-ao-2" stroke="#2D2D2D" width="129.41176" x="383.23525" y="7.23527"/>
  <rect fill="#FFEBA2" height="20.58823" id="dc1e7cf850ec43d590984f3648af8d4f-ao-3" stroke="#2D2D2D" width="347.05881" x="762.647" y="11.64703"/>
  <rect fill="#FFEBA2" height="35.29412" id="dc1e7cf850ec43d590984f3648af8d4f-ao-4" stroke="#2D2D2D" width="232.35294" x="1090.58817" y="132.23526"/>
  <rect fill="#FFEBA2" height="30.88235" id="dc1e7cf850ec43d590984f3648af8d4f-ao-5" stroke="#2D2D2D" width="251.47058" x="1115.58817" y="283.70585"/>
  <rect fill="#FFEBA2" height="35.29412" id="dc1e7cf850ec43d590984f3648af8d4f-ao-6" stroke="#2D2D2D" width="213.23529" x="972.94112" y="680.76466"/>
  <rect fill="#FFEBA2" height="27.94118" id="dc1e7cf850ec43d590984f3648af8d4f-ao-7" stroke="#2D2D2D" width="166.17647" x="849.41171" y="733.70584"/>
  <rect fill="#FFEBA2" height="22.05882" id="dc1e7cf850ec43d590984f3648af8d4f-ao-8" stroke="#2D2D2D" width="207.35294" x="715.58818" y="773.41172"/>
  <rect fill="#FFEBA2" height="26.47059" id="dc1e7cf850ec43d590984f3648af8d4f-ao-9" stroke="#2D2D2D" width="272.05882" x="311.17643" y="736.64701"/>
  <rect fill="#FFEBA2" height="29.41176" id="dc1e7cf850ec43d590984f3648af8d4f-ao-10" stroke="#2D2D2D" width="249.99999" x="68.52937" y="673.41172"/>
  <rect fill="#FFEBA2" height="25" id="dc1e7cf850ec43d590984f3648af8d4f-ao-11" stroke="#2D2D2D" width="160.29411" x="11.17643" y="429.29408"/>
  <rect fill="#FFEBA2" height="36.7647" id="dc1e7cf850ec43d590984f3648af8d4f-ao-12" stroke="#2D2D2D" width="163.23529" x="6.76467" y="179.29409"/>
  <rect fill="#FFEBA2" height="51.47059" id="dc1e7cf850ec43d590984f3648af8d4f-ao-13" stroke="#2D2D2D" width="160.29411" x="21.47055" y="107.23526"/>
  <rect fill="#FFEBA2" height="54.41176" id="dc1e7cf850ec43d590984f3648af8d4f-ao-14" stroke="#2D2D2D" width="133.82353" x="19.99996" y="249.88232"/>
  <rect fill="#FFEBA2" height="26.47059" id="dc1e7cf850ec43d590984f3648af8d4f-ao-15" stroke="#2D2D2D" width="177.94117" x="344.99996" y="433.70584"/>
  <rect fill="#FFEBA2" height="42.64706" id="dc1e7cf850ec43d590984f3648af8d4f-ao-16" stroke="#2D2D2D" width="175" x="436.17642" y="377.82349"/>
  <rect fill="#FFEBA2" height="23.52941" id="dc1e7cf850ec43d590984f3648af8d4f-ao-17" stroke="#2D2D2D" width="147.05882" x="503.82348" y="349.88232"/>
  
  <rect fill="#FFEBA2" height="44.11765" id="dc1e7cf850ec43d590984f3648af8d4f-ao-19" stroke="#2D2D2D" width="113.23529" x="362.64701" y="276.35291"/>
 </g>
</svg>